HIERARCHY
ROOT Hips
{
	OFFSET 0.00000 0.00000 0.00000
	CHANNELS 6 Xposition Yposition Zposition Zrotation Yrotation Xrotation 
	JOINT LHipJoint
	{
		OFFSET 0 0 0
		CHANNELS 3 Zrotation Yrotation Xrotation
		JOINT LeftUpLeg
		{
			OFFSET 1.38280 -1.96574 0.54427
			CHANNELS 3 Zrotation Yrotation Xrotation
			JOINT LeftLeg
			{
				OFFSET 2.72096 -7.47578 0.00000
				CHANNELS 3 Zrotation Yrotation Xrotation
				JOINT LeftFoot
				{
					OFFSET 2.73041 -7.50176 0.00000
					CHANNELS 3 Zrotation Yrotation Xrotation
					JOINT LeftToeBase
					{
						OFFSET 0.16150 -0.44371 2.18031
						CHANNELS 3 Zrotation Yrotation Xrotation
						End Site
						{
							OFFSET 0.00000 -0.00000 1.12127
						}
					}
				}
			}
		}
	}
	JOINT RHipJoint
	{
		OFFSET 0 0 0
		CHANNELS 3 Zrotation Yrotation Xrotation
		JOINT RightUpLeg
		{
			OFFSET -1.57224 -1.96575 0.54427
			CHANNELS 3 Zrotation Yrotation Xrotation
			JOINT RightLeg
			{
				OFFSET -2.95935 -8.13076 0.00000
				CHANNELS 3 Zrotation Yrotation Xrotation
				JOINT RightFoot
				{
					OFFSET -2.52345 -6.93311 0.00000
					CHANNELS 3 Zrotation Yrotation Xrotation
					JOINT RightToeBase
					{
						OFFSET -0.04475 -0.10171 1.86688
						CHANNELS 3 Zrotation Yrotation Xrotation
						End Site
						{
							OFFSET -0.00000 -0.00000 0.95157
						}
					}
				}
			}
		}
	}
	JOINT LowerBack
	{
		OFFSET 0 0 0
		CHANNELS 3 Zrotation Yrotation Xrotation
		JOINT Spine
		{
			OFFSET 0.00669 2.07367 0.09104
			CHANNELS 3 Zrotation Yrotation Xrotation
			JOINT Spine1
			{
				OFFSET -0.00664 2.06198 -0.04732
				CHANNELS 3 Zrotation Yrotation Xrotation
				JOINT Neck
				{
					OFFSET 0 0 0
					CHANNELS 3 Zrotation Yrotation Xrotation
					JOINT Neck1
					{
						OFFSET -0.00021 1.49948 0.16345
						CHANNELS 3 Zrotation Yrotation Xrotation
						JOINT Head
						{
							OFFSET 0.06080 1.50567 -0.26702
							CHANNELS 3 Zrotation Yrotation Xrotation
							End Site
							{
								OFFSET 0.01726 1.56470 -0.11854
							}
						}
					}
				}
				JOINT LeftShoulder
				{
					OFFSET 0 0 0
					CHANNELS 3 Zrotation Yrotation Xrotation
					JOINT LeftArm
					{
						OFFSET 3.14993 0.82932 -0.22488
						CHANNELS 3 Zrotation Yrotation Xrotation
						JOINT LeftForeArm
						{
							OFFSET 5.68236 -0.00000 -0.00000
							CHANNELS 3 Zrotation Yrotation Xrotation
							JOINT LeftHand
							{
								OFFSET 3.17112 -0.00000 0.00000
								CHANNELS 3 Zrotation Yrotation Xrotation
								JOINT LeftFingerBase
								{
									OFFSET 0 0 0
									CHANNELS 3 Zrotation Yrotation Xrotation
									JOINT LeftHandIndex1
									{
										OFFSET 0.63269 -0.00000 0.00000
										CHANNELS 3 Zrotation Yrotation Xrotation
										End Site
										{
											OFFSET 0.51009 -0.00000 0.00000
										}
									}
								}
								JOINT LThumb
								{
									OFFSET 0 0 0
									CHANNELS 3 Zrotation Yrotation Xrotation
									End Site
									{
										OFFSET 0.51788 -0.00000 0.51788
									}
								}
							}
						}
					}
				}
				JOINT RightShoulder
				{
					OFFSET 0 0 0
					CHANNELS 3 Zrotation Yrotation Xrotation
					JOINT RightArm
					{
						OFFSET -3.10571 0.91279 -0.33334
						CHANNELS 3 Zrotation Yrotation Xrotation
						JOINT RightForeArm
						{
							OFFSET -5.87120 -0.00000 -0.00000
							CHANNELS 3 Zrotation Yrotation Xrotation
							JOINT RightHand
							{
								OFFSET -3.37589 -0.00000 0.00000
								CHANNELS 3 Zrotation Yrotation Xrotation
								JOINT RightFingerBase
								{
									OFFSET 0 0 0
									CHANNELS 3 Zrotation Yrotation Xrotation
									JOINT RightHandIndex1
									{
										OFFSET -0.60326 -0.00000 0.00000
										CHANNELS 3 Zrotation Yrotation Xrotation
										End Site
										{
											OFFSET -0.48636 -0.00000 0.00000
										}
									}
								}
								JOINT RThumb
								{
									OFFSET 0 0 0
									CHANNELS 3 Zrotation Yrotation Xrotation
									End Site
									{
										OFFSET -0.49379 -0.00000 0.49379
									}
								}
							}
						}
					}
				}
			}
		}
	}
}
MOTION
Frames: 14
Frame Time: .0083333
31.3967 18.3610 -4.4015 1248.4900 -90.5065 -164.5600 0.0000 0.0000 0.0000 -13.2269 -10.2252 -12.5680 2.0121 8.8912 25.4556 1.5492 6.8980 -26.8848 0.5183 -4.6140 -12.8108 0.0000 0.0000 0.0000 18.6336 10.6178 -12.3888 -2.3733 -9.6037 27.7028 0.2201 12.0462 -4.9332 -2.1197 -9.1112 26.1436 -0.2329 0.4694 -9.3336 1.8950 0.5164 1.2185 2.1955 0.2017 6.5039 -7.2069 -3.4580 -14.3593 2.3763 -4.0773 24.7743 1.4928 -2.4169 10.5182 -0.0000 -0.0000 0.0000 -22.4441 -59.8221 23.3984 51.4776 -53.5743 -27.3587 -0.0000 0.0000 -36.6945 -2.7063 35.3328 -1.5659 -7.1250 0.0000 -0.0000 -41.4877 60.2496 -17.1470 -0.0000 -0.0000 0.0000 15.5703 64.9954 9.4864 -53.0114 54.1401 -28.5974 0.0000 -0.0000 -7.8042 -16.8103 26.0875 -7.5676 7.1250 -0.0000 -0.0000 7.8442 -3.1098 7.4786
31.3992 18.3612 -4.4124 1251.4400 -90.6148 -167.5140 0.0000 0.0000 0.0000 -13.1925 -10.1994 -12.5839 2.0050 8.8765 25.4097 1.5159 6.9931 -26.7063 0.5603 -4.7945 -13.3234 0.0000 0.0000 0.0000 18.6636 10.5366 -12.4211 -2.3779 -9.6124 27.7306 0.2012 11.7559 -4.9733 -2.2754 -9.4176 27.1105 -0.2925 0.4142 -9.3866 1.9595 0.4439 1.2855 2.2882 0.1612 6.6073 -7.2918 -3.4670 -14.7039 2.3852 -4.0311 24.7700 1.5120 -2.3956 10.5839 -0.0000 0.0000 0.0000 -26.0267 -59.8622 26.1099 50.8793 -53.3440 -26.8779 -0.0000 0.0000 -36.5072 -2.5619 35.3317 -1.4822 -7.1250 0.0000 -0.0000 -41.3502 60.2834 -17.1118 -0.0000 0.0000 0.0000 20.1470 65.2208 13.4788 -52.7852 54.0589 -28.4141 0.0000 -0.0000 -7.3858 -16.5031 26.2742 -7.4717 7.1250 -0.0000 -0.0000 8.0445 -2.9684 7.6945
31.4007 18.3619 -4.4235 1254.3200 -90.7056 -170.4160 0.0000 0.0000 0.0000 -13.1798 -10.2070 -12.5505 1.9950 8.8557 25.3451 1.4927 7.0775 -26.5928 0.5865 -4.9033 -13.6329 0.0000 0.0000 0.0000 18.6841 10.4484 -12.4454 -2.3859 -9.6274 27.7784 0.1860 11.4956 -4.9850 -2.4273 -9.7046 28.0252 -0.3551 0.3670 -9.4132 2.0226 0.3824 1.3616 2.3824 0.1260 6.7051 -7.3877 -3.4788 -15.0741 2.3872 -3.9797 24.7542 1.5312 -2.3730 10.6501 -0.0000 -0.0000 0.0000 -29.6020 -59.7754 28.7582 50.3050 -53.1178 -26.4179 -0.0000 0.0000 -36.4494 -2.3704 35.3360 -1.3715 -7.1250 0.0000 -0.0000 -41.1742 60.3327 -17.0726 -0.0000 -0.0000 0.0000 24.6773 65.2429 17.4225 -52.5153 53.9609 -28.1957 0.0000 -0.0000 -7.0214 -16.2413 26.5437 -7.4171 7.1250 -0.0000 -0.0000 8.2236 -2.7364 7.9046
31.4011 18.3625 -4.4347 1256.5200 -90.7709 -172.6540 0.0000 0.0000 0.0000 -13.1758 -10.2447 -12.4692 1.9831 8.8308 25.2674 1.4849 7.1182 -26.5618 0.5858 -4.9006 -13.6252 0.0000 0.0000 0.0000 18.7064 10.3809 -12.4540 -2.3968 -9.6478 27.8435 0.1753 11.2883 -4.9730 -2.5498 -9.9278 28.7433 -0.3759 0.3580 -9.3856 2.0459 0.3706 1.4262 2.4175 0.1180 6.7583 -7.4417 -3.5074 -15.4534 2.4048 -3.9661 24.7448 1.5436 -2.3618 10.7217 0.0000 0.0000 0.0000 -33.1284 -59.6073 31.4203 49.7588 -52.8978 -25.9817 -0.0000 0.0000 -36.5178 -2.0746 35.3695 -1.2012 -7.1250 0.0000 -0.0000 -40.9322 60.4293 -17.0467 0.0000 0.0000 0.0000 29.1912 65.0176 21.2392 -52.1911 53.8419 -27.9337 0.0000 -0.0000 -6.6850 -16.0609 26.8741 -7.4147 7.1250 -0.0000 -0.0000 8.3583 -2.4311 8.0838
31.4005 18.3622 -4.4459 1257.5100 -90.8214 -173.6830 0.0000 0.0000 0.0000 -13.1606 -10.2790 -12.3752 1.9710 8.8055 25.1888 1.4847 7.1194 -26.5618 0.5715 -4.8412 -13.4563 0.0000 0.0000 0.0000 18.7439 10.3465 -12.4517 -2.4091 -9.6707 27.9169 0.1673 11.1230 -4.9554 -2.6333 -10.0763 29.2241 -0.3334 0.3943 -9.3079 2.0174 0.4165 1.4753 2.3698 0.1427 6.7643 -7.4324 -3.5604 -15.8381 2.4543 -4.0130 24.7512 1.5485 -2.3687 10.8024 -0.0000 -0.0000 0.0000 -36.5576 -59.3911 34.1223 49.2250 -52.6781 -25.5565 -0.0000 0.0000 -36.6695 -1.5882 35.4583 -0.9215 -7.1250 0.0000 -0.0000 -40.5716 60.6147 -17.0471 -0.0000 -0.0000 0.0000 33.6450 64.5475 24.8228 -51.8455 53.7132 -27.6550 0.0000 -0.0000 -6.3774 -15.9270 27.2838 -7.4526 7.1250 -0.0000 -0.0000 8.4717 -2.0395 8.2565
31.3994 18.3614 -4.4574 1257.2000 -90.8753 -173.4050 0.0000 0.0000 0.0000 -13.1223 -10.2848 -12.3051 1.9608 8.7840 25.1218 1.4805 7.1159 -26.5284 0.5642 -4.8110 -13.3703 0.0000 0.0000 0.0000 18.8011 10.3411 -12.4501 -2.4212 -9.6933 27.9890 0.1593 10.9697 -4.9548 -2.6833 -10.1639 29.5091 -0.2254 0.4675 -9.2201 1.9419 0.5074 1.5294 2.2423 0.1931 6.7690 -7.3604 -3.6386 -16.2366 2.5352 -4.1205 24.7552 1.5452 -2.3928 10.8872 -0.0000 0.0000 0.0000 -39.8452 -59.1361 36.8141 48.7028 -52.4587 -25.1419 -0.0000 0.0000 -36.8016 -0.8865 35.6085 -0.5162 -7.1250 0.0000 -0.0000 -40.0738 60.9007 -17.0720 -0.0000 0.0000 0.0000 37.9314 63.8774 28.0526 -51.5247 53.5922 -27.3966 0.0000 -0.0000 -6.1167 -15.7676 27.7127 -7.4806 7.1250 -0.0000 -0.0000 8.6018 -1.6331 8.4497
31.3983 18.3607 -4.4690 1256.3900 -90.9433 -172.6200 0.0000 0.0000 0.0000 -13.0674 -10.2705 -12.2725 1.9534 8.7683 25.0732 1.4682 7.1284 -26.4474 0.5703 -4.8362 -13.4420 0.0000 0.0000 0.0000 18.8661 10.3519 -12.4604 -2.4323 -9.7138 28.0549 0.1494 10.8081 -4.9851 -2.7088 -10.2080 29.6529 -0.0864 0.5592 -9.1694 1.8474 0.6204 1.6112 2.0815 0.2557 6.8246 -7.2630 -3.7375 -16.6530 2.6286 -4.2654 24.7318 1.5363 -2.4286 10.9671 0.0000 0.0000 0.0000 -43.0198 -58.8168 39.4095 48.1996 -52.2431 -24.7435 -0.0000 0.0000 -36.7797 -0.1016 35.7758 -0.0594 -7.1250 0.0000 -0.0000 -39.5138 61.2227 -17.0927 0.0000 0.0000 0.0000 41.9384 63.0708 30.8744 -51.2550 53.4893 -27.1796 0.0000 -0.0000 -5.9324 -15.5776 27.9610 -7.4471 7.1250 -0.0000 -0.0000 8.7350 -1.4135 8.6184
31.3974 18.3602 -4.4808 1255.9800 -91.0247 -172.2140 0.0000 0.0000 0.0000 -13.0108 -10.2607 -12.2657 1.9487 8.7584 25.0423 1.4520 7.1543 -26.3456 0.5849 -4.8970 -13.6151 0.0000 0.0000 0.0000 18.9243 10.3550 -12.4864 -2.4424 -9.7325 28.1147 0.1380 10.6360 -5.0385 -2.7199 -10.2272 29.7157 0.0368 0.6519 -9.1688 1.7698 0.7343 1.7186 1.9491 0.3173 6.9366 -7.2031 -3.8484 -17.0656 2.7186 -4.4153 24.6791 1.5314 -2.4696 11.0367 0.0000 -0.0000 0.0000 -46.1549 -58.3911 41.8601 47.7181 -52.0326 -24.3633 -0.0000 0.0000 -36.5464 0.5720 35.8846 0.3353 -7.1250 0.0000 -0.0000 -38.9905 61.4742 -17.0592 0.0000 -0.0000 0.0000 45.6140 62.1597 33.3356 -51.0425 53.4074 -27.0090 0.0000 -0.0000 -5.8546 -15.4155 27.9552 -7.3652 7.1250 -0.0000 -0.0000 8.8302 -1.4444 8.7097
31.3964 18.3597 -4.4929 1256.1700 -91.1137 -172.4100 0.0000 0.0000 0.0000 -12.9613 -10.2632 -12.2709 1.9455 8.7517 25.0217 1.4343 7.1900 -26.2390 0.6039 -4.9745 -13.8358 0.0000 0.0000 0.0000 18.9701 10.3295 -12.5286 -2.4524 -9.7508 28.1735 0.1271 10.4660 -5.0871 -2.7302 -10.2450 29.7737 0.1285 0.7401 -9.2061 1.7217 0.8430 1.8333 1.8658 0.3742 7.0785 -7.2107 -3.9642 -17.4352 2.8021 -4.5547 24.6070 1.5372 -2.5132 11.0921 -0.0000 -0.0000 0.0000 -49.2611 -57.8387 44.1710 47.2656 -51.8313 -24.0071 -0.0000 0.0000 -36.1651 1.0585 35.8948 0.6206 -7.1250 0.0000 -0.0000 -38.5307 61.6036 -16.9416 -0.0000 -0.0000 0.0000 48.9513 61.1347 35.4961 -50.8854 53.3464 -26.8829 0.0000 -0.0000 -5.8884 -15.3333 27.7565 -7.2771 7.1250 -0.0000 -0.0000 8.8626 -1.6562 8.7085
31.3951 18.3586 -4.5054 1256.9600 -91.2038 -173.1890 0.0000 0.0000 0.0000 -12.9240 -10.2709 -12.2849 1.9424 8.7451 25.0012 1.4142 7.2377 -26.1219 0.6247 -5.0577 -14.0733 0.0000 0.0000 0.0000 19.0010 10.2734 -12.5892 -2.4633 -9.7709 28.2381 0.1193 10.3196 -5.1010 -2.7511 -10.2809 29.8911 0.1845 0.8220 -9.2556 1.7002 0.9454 1.9342 1.8301 0.4260 7.2125 -7.2776 -4.0791 -17.7342 2.8782 -4.6801 24.5255 1.5529 -2.5581 11.1312 -0.0000 -0.0000 0.0000 -52.3024 -57.1624 46.3606 46.8261 -51.6324 -23.6620 -0.0000 0.0000 -35.7574 1.4156 35.8320 0.8288 -7.1250 0.0000 -0.0000 -38.1103 61.6440 -16.7622 -0.0000 -0.0000 0.0000 51.9608 59.9870 37.4143 -50.7674 53.3004 -26.7883 0.0000 -0.0000 -6.0109 -15.3842 27.3966 -7.2158 7.1250 -0.0000 -0.0000 8.8036 -2.0094 8.5926
31.3934 18.3569 -4.5185 1258.2700 -91.2893 -174.4820 0.0000 0.0000 0.0000 -12.9017 -10.2808 -12.2996 1.9383 8.7363 24.9739 1.3923 7.2990 -26.0002 0.6472 -5.1461 -14.3259 0.0000 0.0000 0.0000 19.0169 10.1961 -12.6638 -2.4758 -9.7937 28.3112 0.1159 10.2095 -5.0649 -2.7860 -10.3402 30.0856 0.2028 0.8926 -9.2867 1.6995 1.0361 2.0120 1.8352 0.4702 7.3112 -7.3855 -4.1875 -17.9686 2.9479 -4.7885 24.4369 1.5763 -2.6011 11.1554 -0.0000 -0.0000 0.0000 -55.2308 -56.3725 48.4100 46.3684 -51.4215 -23.3037 -0.0000 0.0000 -35.4448 1.7806 35.7703 1.0410 -7.1250 0.0000 -0.0000 -37.6827 61.6870 -16.5816 -0.0000 -0.0000 0.0000 54.6674 58.7387 39.1482 -50.6634 53.2596 -26.7048 0.0000 -0.0000 -6.1874 -15.5405 26.9728 -7.1888 7.1250 -0.0000 -0.0000 8.6772 -2.4112 8.4026
31.3914 18.3549 -4.5324 1259.8400 -91.3621 -176.0390 0.0000 0.0000 0.0000 -12.8920 -10.2996 -12.2983 1.9331 8.7254 24.9400 1.3742 7.3638 -25.9085 0.6704 -5.2359 -14.5825 0.0000 0.0000 0.0000 19.0245 10.1089 -12.7394 -2.4891 -9.8180 28.3894 0.1166 10.1347 -4.9793 -2.8295 -10.4138 30.3275 0.2005 0.9513 -9.2900 1.7064 1.1132 2.0797 1.8571 0.5069 7.3830 -7.5007 -4.2852 -18.1720 3.0039 -4.8777 24.3332 1.5993 -2.6380 11.1668 0.0000 -0.0000 0.0000 -57.9848 -55.4767 50.2641 45.8974 -51.2006 -22.9360 -0.0000 0.0000 -35.2773 2.2817 35.7789 1.3345 -7.1250 0.0000 -0.0000 -37.2021 61.8197 -16.4535 0.0000 -0.0000 0.0000 57.1159 57.4358 40.7220 -50.5514 53.2155 -26.6152 0.0000 -0.0000 -6.3729 -15.6815 26.5355 -7.1488 7.1250 -0.0000 -0.0000 8.5590 -2.8296 8.2196
31.3887 18.3533 -4.5470 1261.2600 -91.4132 -177.4570 0.0000 0.0000 0.0000 -12.8833 -10.3360 -12.2732 1.9280 8.7145 24.9061 1.3665 7.4133 -25.8838 0.6903 -5.3116 -14.7995 0.0000 0.0000 0.0000 19.0362 10.0293 -12.8037 -2.5019 -9.8414 28.4645 0.1199 10.0924 -4.8685 -2.8739 -10.4881 30.5723 0.2010 1.0026 -9.2765 1.7111 1.1805 2.1506 1.8734 0.5389 7.4489 -7.5918 -4.3682 -18.3767 3.0323 -4.9444 24.2185 1.6114 -2.6657 11.1715 0.0000 0.0000 0.0000 -60.5416 -54.4683 51.8716 45.4290 -50.9769 -22.5715 -0.0000 0.0000 -35.1794 2.8510 35.8654 1.6713 -7.1250 0.0000 -0.0000 -36.7425 62.0319 -16.4034 0.0000 0.0000 0.0000 59.3691 56.1138 42.1383 -50.4024 53.1565 -26.4959 0.0000 -0.0000 -6.5191 -15.7347 26.0186 -7.0454 7.1250 -0.0000 -0.0000 8.4880 -3.3420 8.0692
31.3849 18.3516 -4.5622 1262.0300 -91.4396 -178.2350 0.0000 0.0000 0.0000 -12.8593 -10.3890 -12.2286 1.9241 8.7061 24.8802 1.3702 7.4389 -25.9289 0.7034 -5.3605 -14.9397 0.0000 0.0000 0.0000 19.0680 9.9745 -12.8478 -2.5129 -9.8614 28.5290 0.1236 10.0713 -4.7712 -2.9155 -10.5569 30.7997 0.2234 1.0526 -9.2551 1.7150 1.2433 2.2248 1.8756 0.5697 7.5145 -7.6565 -4.4354 -18.5987 3.0335 -4.9880 24.1144 1.6125 -2.6840 11.1805 -0.0000 -0.0000 0.0000 -62.9198 -53.3423 53.2193 44.9540 -50.7459 -22.2031 -0.0000 0.0000 -35.0425 3.2830 35.9817 1.9303 -7.1250 0.0000 -0.0000 -36.4514 62.2340 -16.4280 -0.0000 -0.0000 0.0000 61.4750 54.7737 43.3903 -50.1881 53.0711 -26.3245 0.0000 -0.0000 -6.5962 -15.7106 25.4478 -6.8917 7.1250 -0.0000 -0.0000 8.4612 -3.9207 7.9517
